HIERARCHY
ROOT Hips
{
	OFFSET -0.001795 -0.223333 0.028219
	CHANNELS 6 Xposition Yposition Zposition Zrotation Yrotation Xrotation 
	JOINT LeftUpLeg
	{
		OFFSET 0.069520 -0.091406 -0.006815
		CHANNELS 3 Zrotation Yrotation Xrotation
		JOINT LeftLeg
		{
			OFFSET 0.034277 -0.375199 -0.004496
			CHANNELS 3 Zrotation Yrotation Xrotation
			JOINT LeftFoot
			{
				OFFSET -0.013596 -0.397961 -0.043693
				CHANNELS 3 Zrotation Yrotation Xrotation
				JOINT LeftToe
				{
					OFFSET 0.026358 -0.055791 0.119288
					CHANNELS 3 Zrotation Yrotation Xrotation
					End Site
					{
						OFFSET 0.000000 0.000000 0.000000
					}
				}
			}
		}
	}
	JOINT RightUpLeg
	{
		OFFSET -0.067670 -0.090522 -0.004320
		CHANNELS 3 Zrotation Yrotation Xrotation
		JOINT RightLeg
		{
			OFFSET -0.038290 -0.382569 -0.008850
			CHANNELS 3 Zrotation Yrotation Xrotation
			JOINT RightFoot
			{
				OFFSET 0.015774 -0.398415 -0.042312
				CHANNELS 3 Zrotation Yrotation Xrotation
				JOINT RightToe
				{
					OFFSET -0.025372 -0.048144 0.123348
					CHANNELS 3 Zrotation Yrotation Xrotation
					End Site
					{
						OFFSET 0.000000 0.000000 0.000000
					}
				}
			}
		}
	}
	JOINT Spine
	{
		OFFSET -0.002533 0.108963 -0.026696
		CHANNELS 3 Zrotation Yrotation Xrotation
		JOINT Spine1
		{
			OFFSET 0.005487 0.135180 0.001092
			CHANNELS 3 Zrotation Yrotation Xrotation
			JOINT Spine2
			{
				OFFSET 0.001457 0.052922 0.025425
				CHANNELS 3 Zrotation Yrotation Xrotation
				JOINT Neck
				{
					OFFSET -0.002778 0.213870 -0.042857
					CHANNELS 3 Zrotation Yrotation Xrotation
					JOINT Head
					{
						OFFSET 0.005152 0.064970 0.051349
						CHANNELS 3 Zrotation Yrotation Xrotation
						End Site
						{
							OFFSET 0.000000 0.000000 0.000000
						}
					}
				}
				JOINT LeftShoulder
				{
					OFFSET 0.078845 0.121749 -0.034090
					CHANNELS 3 Zrotation Yrotation Xrotation
					JOINT LeftArm
					{
						OFFSET 0.090977 0.030469 -0.008868
						CHANNELS 3 Zrotation Yrotation Xrotation
						JOINT LeftForeArm
						{
							OFFSET 0.259612 -0.012772 -0.027456
							CHANNELS 3 Zrotation Yrotation Xrotation
							JOINT LeftHand
							{
								OFFSET 0.249234 0.008986 -0.001171
								CHANNELS 3 Zrotation Yrotation Xrotation
								End Site
								{
									OFFSET 0.000000 0.000000 0.000000
								}
							}
						}
					}
				}
				JOINT RightShoulder
				{
					OFFSET -0.081759 0.118833 -0.038615
					CHANNELS 3 Zrotation Yrotation Xrotation
					JOINT RightArm
					{
						OFFSET -0.096012 0.032551 -0.009143
						CHANNELS 3 Zrotation Yrotation Xrotation
						JOINT RightForeArm
						{
							OFFSET -0.253742 -0.013329 -0.021401
							CHANNELS 3 Zrotation Yrotation Xrotation
							JOINT RightHand
							{
								OFFSET -0.255298 0.007772 -0.005559
								CHANNELS 3 Zrotation Yrotation Xrotation
								End Site
								{
									OFFSET 0.000000 0.000000 0.000000
								}
							}
						}
					}
				}
			}
		}
	}
}
MOTION
Frames: 18
Frame Time: 0.050000
0.000000 0.874981 0.000000 0.669518 -13.479414 -5.978013 10.224243 1.470680 -30.150311 -6.679951 1.465671 10.995331 8.992574 17.165948 16.998510 0.000000 0.000000 0.000000 -0.998990 -0.991378 22.593396 -0.551832 1.160788 16.457186 -0.607757 5.315592 -8.630959 0.000000 0.000000 0.000000 -2.478853 -0.075686 11.590210 5.906547 -1.213247 -22.666458 3.851793 12.414700 27.359814 4.372104 0.217893 -30.415860 0.000000 0.000000 0.000000 -21.695310 11.472686 -8.941444 -52.004308 4.512500 -10.105306 -15.737709 -24.429921 4.576181 0.000000 0.000000 0.000000 13.823104 -1.768491 -0.963927 51.639058 16.055445 -0.706516 10.002915 48.643164 7.843900 0.000000 0.000000 0.000000 
0.006469 0.874998 0.077654 -1.004589 -14.131569 -4.397392 10.428878 1.631589 -30.864771 -5.550030 1.314110 13.317249 5.388732 12.339224 21.268034 0.000000 0.000000 0.000000 -2.078546 -0.718360 24.607714 -1.051622 1.439696 18.082712 2.444232 7.236509 -1.547166 0.000000 0.000000 0.000000 -1.951130 -0.130957 8.126606 7.234049 -1.051214 -26.551851 5.150771 11.508942 32.332160 3.727208 0.179156 -28.941202 0.000000 0.000000 0.000000 -23.219429 13.518910 -10.168681 -51.656431 6.150823 -11.101366 -14.289987 -21.643200 3.892393 0.000000 0.000000 0.000000 11.597252 -3.684641 -1.889188 55.187155 13.015950 -2.371904 14.826687 48.036335 9.977128 0.000000 0.000000 0.000000 
0.013478 0.886459 0.157547 0.384293 -14.274151 -5.031791 7.400862 0.561132 -29.158592 -7.305393 2.375187 19.890490 7.893351 15.660159 18.401567 0.000000 0.000000 0.000000 -5.332060 0.216194 25.754880 -1.517116 2.077958 22.852157 5.489276 6.565359 8.003076 0.000000 0.000000 0.000000 -2.584624 -0.078440 5.024200 5.409883 -1.000882 -23.464792 4.867340 12.710690 29.868954 3.850401 0.411394 -30.130639 0.000000 0.000000 0.000000 -21.410234 12.185379 -9.218092 -53.472214 5.885443 -11.159019 -10.140040 -19.637749 2.705562 0.000000 0.000000 0.000000 11.409454 -2.946383 -1.450553 56.930407 11.416758 -2.782188 9.370577 37.480718 5.500653 0.000000 0.000000 0.000000 
0.020058 0.904852 0.227532 1.009153 -12.640357 -5.339051 4.423765 -0.542965 -24.160993 -7.629029 2.324200 18.863047 8.242047 16.382892 15.775462 0.000000 0.000000 0.000000 -6.357628 0.236682 23.021939 -0.773331 2.727954 30.834539 7.214745 2.501609 20.138920 0.000000 0.000000 0.000000 -4.401602 0.005861 5.515163 6.311248 -0.950584 -25.590675 4.351986 10.626910 30.068189 3.413562 0.370632 -29.172720 0.000000 0.000000 0.000000 -22.076960 14.927458 -10.777194 -52.369571 4.953737 -10.535829 -10.939629 -17.702330 2.589782 0.000000 0.000000 0.000000 10.172758 -3.332657 -1.698095 58.279190 8.494478 -4.242700 10.872465 32.066499 4.845602 0.000000 0.000000 0.000000 
0.024002 0.927483 0.282480 1.005164 -10.460115 -5.345814 1.934032 -1.090497 -18.788169 -6.891745 1.687456 14.874516 7.588297 15.720330 16.252764 0.000000 0.000000 0.000000 -5.879988 -0.114466 16.425548 2.516173 2.388999 41.543180 4.161904 -3.409328 23.753931 0.000000 0.000000 0.000000 -4.367032 0.013090 7.393646 5.725500 -0.593025 -27.669009 3.338231 7.704942 29.609425 3.098760 0.401162 -31.040971 0.000000 0.000000 0.000000 -21.367740 13.826293 -9.492109 -52.256640 2.796382 -9.709902 -10.495578 -18.537306 2.701839 0.000000 0.000000 0.000000 11.091315 -3.072452 -1.826011 58.297398 7.932231 -4.603215 6.492763 26.708809 2.795285 0.000000 0.000000 0.000000 
0.026110 0.946557 0.322758 0.752860 -10.741818 -5.352308 0.890247 -0.958514 -13.004764 -5.964614 1.193787 10.025543 7.431462 15.526504 16.314876 0.000000 0.000000 0.000000 -6.236455 0.021560 8.338123 6.971563 0.890472 48.941054 -0.181710 -8.111566 17.896782 0.000000 0.000000 0.000000 -3.909151 -0.007653 8.559867 6.468304 -0.722743 -28.020626 1.465588 6.529474 28.805769 2.133305 0.689722 -30.861645 0.000000 0.000000 0.000000 -20.872837 12.751585 -8.375252 -51.013810 -1.016672 -8.054656 -9.404749 -21.270529 2.983623 0.000000 0.000000 0.000000 12.283972 -1.295993 -1.276748 55.858163 7.282785 -4.823772 5.279341 24.953985 2.215409 0.000000 0.000000 0.000000 
0.026493 0.960060 0.354083 -0.172158 -10.055467 -4.842133 0.493879 -0.717677 -8.726993 -4.835026 0.779489 5.896792 6.145342 13.752149 16.039555 0.000000 0.000000 0.000000 -5.120350 0.156488 0.555646 10.089690 -0.907248 50.432735 -3.704214 -12.443728 11.571870 0.000000 0.000000 0.000000 -2.938721 -0.081408 9.695879 6.213653 -0.572423 -28.893902 1.043862 4.410675 29.189397 1.151053 0.902533 -30.488447 0.000000 0.000000 0.000000 -20.430418 11.502701 -7.125108 -49.272124 -5.386876 -6.281628 -7.782106 -22.181590 2.852537 0.000000 0.000000 0.000000 11.287997 -1.786055 -1.643057 53.694444 7.136542 -4.820350 5.294284 25.888235 2.211906 0.000000 0.000000 0.000000 
0.025862 0.969974 0.378850 -0.865383 -9.241342 -4.407793 -0.322908 -0.519489 -5.515405 -3.303554 0.443880 2.412121 5.212710 12.617354 17.754652 0.000000 0.000000 0.000000 -3.607593 0.471530 -5.333982 10.972200 -1.674581 46.259091 -6.504646 -17.290921 9.916338 0.000000 0.000000 0.000000 -1.829394 -0.186521 10.473725 6.291011 -0.494119 -29.701773 -0.588446 2.982606 29.025146 0.654933 0.988878 -30.058545 0.000000 0.000000 0.000000 -18.697146 10.448943 -6.042013 -46.463405 -8.915032 -4.757216 -4.522737 -24.540904 2.483818 0.000000 0.000000 0.000000 10.694614 -2.969954 -2.239221 50.513139 7.858873 -4.299847 1.612735 25.440295 1.326692 0.000000 0.000000 0.000000 
0.023627 0.974293 0.399394 -1.081717 -8.508696 -3.596290 -0.363391 -0.399923 -4.176786 -3.027610 0.392881 1.679279 4.696146 11.746817 15.503716 0.000000 0.000000 0.000000 -2.177049 0.806738 -8.932657 7.691946 -0.437423 38.019590 -5.661755 -15.215910 6.395506 0.000000 0.000000 0.000000 -1.188859 -0.243848 10.120195 5.066147 -0.237539 -29.997128 -0.075752 0.650470 29.528934 -0.541423 1.276099 -29.718873 0.000000 0.000000 0.000000 -17.343143 10.183441 -5.332555 -43.707244 -12.996979 -3.262278 -1.237334 -24.345700 1.820990 0.000000 0.000000 0.000000 8.008845 -2.997866 -2.101654 47.640183 8.092059 -4.101754 -2.131973 25.708314 0.423193 0.000000 0.000000 0.000000 
0.020312 0.977938 0.416539 -1.459131 -7.483895 -2.502337 -0.534327 -0.245819 -2.495175 -2.052213 0.259426 0.087269 3.245732 9.602985 15.100340 0.000000 0.000000 0.000000 -0.411305 0.878196 -8.816659 4.491703 0.278341 28.036928 -3.926599 -11.580094 5.876467 0.000000 0.000000 0.000000 -0.687242 -0.284212 9.548569 5.265325 -0.222836 -30.454135 -0.973257 0.561957 29.394318 -0.261828 1.222494 -29.871182 0.000000 0.000000 0.000000 -16.099523 9.233885 -4.804819 -39.040808 -16.335505 -2.072328 3.083603 -23.708855 0.800186 0.000000 0.000000 0.000000 7.991838 -4.561757 -2.716446 42.442559 8.708544 -3.488280 -5.915824 24.190452 -0.351785 0.000000 0.000000 0.000000 
0.015993 0.979388 0.431089 -1.036079 -5.783898 -1.787868 -1.065550 -0.200668 -1.946417 -1.616939 0.192395 0.353217 2.529571 8.581485 14.383102 0.000000 0.000000 0.000000 0.200865 0.725229 -7.155101 3.015690 0.321058 21.331095 -3.280062 -10.231758 6.091877 0.000000 0.000000 0.000000 -0.788319 -0.259681 8.578154 5.015222 -0.187403 -30.263377 -1.886193 -0.673214 28.853650 -0.270160 1.112874 -28.206972 0.000000 0.000000 0.000000 -14.139247 9.234582 -4.601902 -35.207349 -17.558220 -1.632556 6.297406 -23.462320 0.121393 0.000000 0.000000 0.000000 6.506509 -4.998918 -2.701096 39.561954 7.185556 -3.667440 -9.075537 24.020533 -1.016020 0.000000 0.000000 0.000000 
0.012241 0.979669 0.443519 -0.832928 -4.559373 -1.258337 -1.168055 -0.152215 -1.495496 -1.536847 0.173144 0.601168 2.145885 7.865849 13.072058 0.000000 0.000000 0.000000 0.309337 0.556677 -5.527649 1.640861 0.414574 16.358206 -2.734962 -9.961239 9.243823 0.000000 0.000000 0.000000 -0.889592 -0.224068 7.387068 4.531622 -0.135678 -29.718513 -2.090162 -0.714043 28.792250 -0.889404 1.566544 -27.798185 0.000000 0.000000 0.000000 -11.892666 8.637399 -4.189812 -32.939645 -18.886709 -1.231743 8.700797 -23.374111 -0.414177 0.000000 0.000000 0.000000 5.268273 -5.958492 -2.860728 38.086098 6.079559 -3.849124 -9.972980 23.503168 -1.131552 0.000000 0.000000 0.000000 
0.009633 0.978907 0.454326 -0.466719 -4.592058 -0.544553 -1.356408 -0.064140 -0.654529 -1.625613 0.194442 0.004000 2.535149 8.223924 11.760579 0.000000 0.000000 0.000000 0.395768 0.375818 -3.799867 1.435381 0.293363 12.404283 -2.809603 -10.181085 9.499063 0.000000 0.000000 0.000000 -1.127860 -0.163554 5.841964 4.083349 -0.089263 -29.110565 -1.941561 -0.853603 29.001020 -1.319189 1.787487 -28.081851 0.000000 0.000000 0.000000 -11.038855 8.850643 -4.187873 -31.750609 -18.349809 -1.395740 10.763652 -24.464228 -0.835973 0.000000 0.000000 0.000000 4.076419 -6.200622 -2.790469 36.937153 5.778320 -3.819303 -10.426402 22.260930 -1.171416 0.000000 0.000000 0.000000 
0.008461 0.977992 0.463536 -0.179171 -4.866894 0.508367 -1.410546 0.022100 0.134174 -1.910052 0.239758 -0.680302 3.459953 9.638641 11.314465 0.000000 0.000000 0.000000 0.580837 0.243531 -2.558744 1.040044 0.234350 9.054955 -2.508139 -9.847418 10.283936 0.000000 0.000000 0.000000 -1.199294 -0.121846 4.617206 3.919461 -0.050056 -29.140088 -1.972542 -0.650898 29.472211 -1.634042 1.997046 -29.132404 0.000000 0.000000 0.000000 -11.249845 9.731432 -4.644215 -30.440360 -18.152600 -1.481935 11.135032 -25.281636 -0.949532 0.000000 0.000000 0.000000 3.668525 -6.608138 -2.893593 36.104915 5.540783 -3.825176 -10.697504 21.732575 -1.193495 0.000000 0.000000 0.000000 
0.008739 0.978082 0.471065 -0.109373 -5.154263 0.686731 -1.654439 0.114595 0.959685 -1.874548 0.242664 -1.055100 3.483509 9.577128 10.865189 0.000000 0.000000 0.000000 0.820075 0.167728 -1.876530 0.538640 0.277348 8.007437 -2.593746 -10.129041 10.612953 0.000000 0.000000 0.000000 -1.295440 -0.104898 4.211258 3.883792 -0.054611 -28.973888 -1.743848 -0.193963 29.638741 -1.810830 2.148934 -29.372870 0.000000 0.000000 0.000000 -10.818507 10.255741 -4.886276 -30.595576 -17.696002 -1.570169 11.876996 -26.376568 -1.154868 0.000000 0.000000 0.000000 3.056500 -6.583760 -2.780390 36.368045 5.442869 -3.892869 -11.093482 21.584411 -1.233738 0.000000 0.000000 0.000000 
0.010064 0.978012 0.477922 -0.110471 -5.395011 0.744380 -1.994691 0.250753 2.107710 -1.384934 0.193729 -1.308587 3.668546 9.805709 10.465750 0.000000 0.000000 0.000000 0.911418 0.066744 -0.941293 0.079029 0.282499 6.526212 -2.612967 -10.228483 10.764744 0.000000 0.000000 0.000000 -1.393327 -0.098665 4.182472 4.190272 -0.124565 -28.803839 -1.585380 0.097086 29.921199 -1.939908 2.242396 -29.366344 0.000000 0.000000 0.000000 -11.108732 10.851991 -5.226944 -30.671537 -16.758334 -1.798024 11.898958 -26.950607 -1.185571 0.000000 0.000000 0.000000 2.442944 -6.731296 -2.741250 36.819104 5.582817 -3.940424 -11.756378 22.005672 -1.362291 0.000000 0.000000 0.000000 
0.012417 0.977656 0.483990 -0.291946 -5.019403 0.767466 -2.144935 0.360344 3.010213 -1.076194 0.175108 -1.971779 3.929191 10.259024 10.317514 0.000000 0.000000 0.000000 1.126675 0.000709 -0.364905 -0.236721 0.282810 5.611767 -3.063564 -11.057821 10.873989 0.000000 0.000000 0.000000 -1.481435 -0.088727 3.930258 4.444358 -0.212747 -28.317771 -1.509451 0.023602 29.827554 -2.059542 2.331530 -29.177994 0.000000 0.000000 0.000000 -10.226238 11.071816 -5.246703 -30.853026 -15.646441 -2.008043 10.959286 -27.114823 -0.995169 0.000000 0.000000 0.000000 1.835656 -6.929006 -2.724591 37.078532 5.835531 -3.894733 -12.142224 22.859157 -1.481789 0.000000 0.000000 0.000000 
0.015598 0.976199 0.489419 -0.445851 -4.749219 0.930285 -2.391203 0.426177 3.484664 -0.627114 0.127715 -1.933637 4.070418 10.388050 9.459516 0.000000 0.000000 0.000000 1.402318 -0.044297 -0.025683 -0.493387 0.289130 5.022823 -3.397533 -11.555695 10.475965 0.000000 0.000000 0.000000 -1.616701 -0.074190 3.610387 4.702304 -0.271904 -28.189836 -1.430420 -0.368086 30.295204 -1.999039 2.256228 -29.313869 0.000000 0.000000 0.000000 -9.596748 11.622633 -5.406519 -30.449372 -14.379978 -2.301962 10.983511 -27.331883 -0.987726 0.000000 0.000000 0.000000 0.791944 -6.735458 -2.506125 36.712849 6.382008 -3.753927 -12.868384 23.808815 -1.718250 0.000000 0.000000 0.000000 
